{"accessors" : [{"bufferView" : 0, "byteOffset" : 0, "componentType" : 5123, "count" : 40704, "type" : "SCALAR", "max" : [40703], "min" : [0]}, {"bufferView" : 1, "byteOffset" : 0, "componentType" : 5126, "count" : 40704, "type" : "VEC3", "max" : [4.726558208465576, 4.72655725479126, 0.5293823480606079], "min" : [-4.72655725479126, -4.726558685302734, -0.40415164828300476], "name" : "POSITION"}, {"bufferView" : 1, "byteOffset" : 12, "componentType" : 5126, "count" : 40704, "type" : "VEC3", "max" : [1.0000044107437134, 1.0000044107437134, 1.0000044107437134], "min" : [-1.0000044107437134, -1.0000044107437134, -1.0000044107437134], "name" : "NORMAL"}, {"bufferView" : 1, "byteOffset" : 24, "componentType" : 5126, "count" : 40704, "type" : "VEC2", "max" : [1, 1], "min" : [0.0003606954705901444, 0], "name" : "TEXCOORD_0"}], "asset" : {"generator" : "Aspose.3D 24.9.1", "version" : "2.0"}, "buffers" : [{"uri" : "data:application/octet-stream;base64,", "byteLength" : 1383944}], "bufferViews" : [{"buffer" : 0, "byteOffset" : 0, "byteLength" : 81408, "target" : 34963}, {"buffer" : 0, "byteOffset" : 81412, "byteLength" : 1302528, "byteStride" : 32, "target" : 34962}], "materials" : [{"name" : "Plate", "pbrMetallicRoughness" : {"baseColorFactor" : [0.8, 0.8, 0.8, 1], "metallicFactor" : 1, "roughnessFactor" : 1}, "emissiveFactor" : [0, 0, 0], "alphaMode" : "OPAQUE", "doubleSided" : false}], "meshes" : [{"primitives" : [{"attributes" : {"POSITION" : 1, "NORMAL" : 2, "TEXCOORD_0" : 3}, "indices" : 0, "material" : 0, "mode" : 4}], "name" : "Circle.001"}], "nodes" : [{"matrix" : [100, 0, 0, 0, 0, -1.6292067955264296E-05, -99.99999999999866, 0, 0, 99.99999999999866, -1.6292067955264296E-05, 0, 0, 40, 0, 1], "mesh" : 0, "name" : "Plate"}], "scene" : 0, "scenes" : [{"nodes" : [0]}]}